<svg xmlns="http://www.w3.org/2000/svg" viewBox="0 0 24 24"><path d="M12 0C5.37 0 0 5.37 0 12s5.37 12 12 12 12-5.37 12-12S18.63 0 12 0zm5.35 18.1c-1.33 1.32-3.11 2.03-5.35 2.03s-4.02-.7-5.35-2.03c-.22-.22-.22-.58 0-.8.22-.22.58-.22.8 0l.47.47c1.33 1.33 3.11 2.04 5.07 2.04s3.75-.7 5.08-2.04l.47-.47c.22-.22.58-.22.8 0s.22.58 0 .8zM8.38 16.5h7.24v-1.12H8.38v1.12zm7.64-3.26h-1.12V7.1h1.12v6.14zm-7.64 0H7.26V7.1h1.12v6.14zM12 14.38c-.37 0-.67-.3-.67-.67s.3-.67.67-.67.67.3.67.67-.3.67-.67.67zM12 6.6c-2.4 0-4.35-1.95-4.35-4.35h1.12c0 1.79 1.44 3.23 3.23 3.23s3.23-1.44 3.23-3.23h1.12C16.35 4.65 14.4 6.6 12 6.6z"/></svg>